<svg xmlns="http://www.w3.org/2000/svg" width="147.828" height="98.359" viewBox="0 0 147.828 98.359">
  <g id="Group_1839" data-name="Group 1839" transform="translate(-222.132 -181.654)">
    <g id="Group_1838" data-name="Group 1838" transform="translate(222.132 181.654)">
      <g id="Group_1837" data-name="Group 1837">
        <path id="Path_1803" data-name="Path 1803" d="M544.817,362.334h-6.45a4.318,4.318,0,0,0-.936-2.247,4.85,4.85,0,0,0-3.492-1.045,5.213,5.213,0,0,0-3.335.8,2.069,2.069,0,0,0-.713,1.646c0,.977,1.358,1.757,4.048,2.357a64.121,64.121,0,0,1,6.629,1.712c.356.134.667.245.891.356,2.737,1.29,4.093,3.25,4.093,5.874a7.442,7.442,0,0,1-3.982,7.006c-.335.18-.645.335-1,.49a15.063,15.063,0,0,1-5.96,1.111,16.353,16.353,0,0,1-8.142-1.78,7.686,7.686,0,0,1-2.921-2.853,8.024,8.024,0,0,1-.972-4.019h6.761a3.2,3.2,0,0,0,1.246,2.692,6.943,6.943,0,0,0,4.2.98,5.071,5.071,0,0,0,3.337-.935,2.084,2.084,0,0,0,.845-1.647c0-1.045-1.332-1.867-3.982-2.446a43.354,43.354,0,0,1-7.473-2.026c-2.712-1.267-4.048-3.223-4.048-5.94a7.763,7.763,0,0,1,2.113-5.536c1.78-1.891,4.448-2.826,7.986-2.826a16.69,16.69,0,0,1,7.006,1.246,2.425,2.425,0,0,1,.423.224,7.045,7.045,0,0,1,2.864,2.737A8.152,8.152,0,0,1,544.817,362.334Z" transform="translate(-397.723 -282.415)" fill="#fff"/>
        <path id="Path_1804" data-name="Path 1804" d="M564.3,334.386a.528.528,0,0,0-.089-.334.48.48,0,0,0-.288-.221,3.255,3.255,0,0,0-.424-.069h-1.022v1.246H563.5a.947.947,0,0,0,.6-.177A.562.562,0,0,0,564.3,334.386Zm.535-.669a.977.977,0,0,1,.2.6,1.084,1.084,0,0,1-.334.8,1.285,1.285,0,0,1-.866.379,1.121,1.121,0,0,1,.355.221l.622.825.49.821h-.8l-.379-.666a3.771,3.771,0,0,0-.622-.89.289.289,0,0,0-.089-.066l-.531-.155h-.4v1.777h-.669v-4.18h1.445c.09,0,.18.021.245.021a2.406,2.406,0,0,1,.8.111A.97.97,0,0,1,564.833,333.718Z" transform="translate(-420.653 -270.215)" fill="#fff"/>
        <path id="Path_1805" data-name="Path 1805" d="M563.691,332.637a3.228,3.228,0,0,0-.424-1.625,3.135,3.135,0,0,0-1.2-1.2,3.439,3.439,0,0,0-1.581-.422h-.021a3.426,3.426,0,0,0-1.577.422,3.122,3.122,0,0,0-1.2,1.2,3.156,3.156,0,0,0,0,3.226,3.012,3.012,0,0,0,1.179,1.177,3.188,3.188,0,0,0,1.6.424h.021a3.2,3.2,0,0,0,1.6-.424,2.992,2.992,0,0,0,1.178-1.177A3.209,3.209,0,0,0,563.691,332.637Zm.645,0a3.8,3.8,0,0,1-.514,1.912,3.368,3.368,0,0,1-1.422,1.422,3.726,3.726,0,0,1-1.915.514h-.021a3.714,3.714,0,0,1-1.912-.514,3.368,3.368,0,0,1-1.425-1.422,3.8,3.8,0,0,1-.511-1.912,3.85,3.85,0,0,1,.511-1.959,3.577,3.577,0,0,1,1.446-1.423,4.205,4.205,0,0,1,1.89-.511h.021a3.953,3.953,0,0,1,1.891.511,3.424,3.424,0,0,1,1.446,1.423A3.857,3.857,0,0,1,564.336,332.637Z" transform="translate(-417.619 -267.62)" fill="#fff"/>
        <path id="Path_1806" data-name="Path 1806" d="M425.456,215.241l18.263,30.429H414.38L396.942,216.6l-13.212-22,13.212-7.941,8.318-5Z" transform="translate(-316.577 -181.654)" fill="#fff"/>
        <path id="Path_1807" data-name="Path 1807" d="M478.909,367.967v12.48h-6.073v-1.38a12.993,12.993,0,0,1-7.117,2.114h-.068a13.213,13.213,0,0,1,0-26.425h.068a13.019,13.019,0,0,1,7.117,2.112v-1.446h6.073Zm-6.073,1.38v-2.758a7.276,7.276,0,0,0-7.117-5.873h-.068a7.263,7.263,0,0,0,0,14.526h.068A7.3,7.3,0,0,0,472.836,369.347Z" transform="translate(-356.771 -282.822)" fill="#fff"/>
        <path id="Path_1808" data-name="Path 1808" d="M410.291,356.832v12.48h-6.071v-1.38a13.049,13.049,0,0,1-7.119,2.114h-.066a13.213,13.213,0,0,1,0-26.425h.066a13.074,13.074,0,0,1,7.119,2.112V335.7h6.071Zm-6.071,1.38v-2.758a7.278,7.278,0,0,0-7.119-5.874h-.066a7.263,7.263,0,0,0,0,14.526h.066A7.3,7.3,0,0,0,404.219,358.212Z" transform="translate(-316.67 -271.687)" fill="#fff"/>
        <path id="Path_1809" data-name="Path 1809" d="M360.466,265.732l7.161,11.969H338.309l-16.28-27.092-.711-1.18.711-.421,20.842-12.548Z" transform="translate(-280.101 -213.685)" fill="#fff"/>
        <rect id="Rectangle_1357" data-name="Rectangle 1357" width="6.606" height="25.692" transform="translate(58.232 71.933)" fill="#fff"/>
        <rect id="Rectangle_1358" data-name="Rectangle 1358" width="6.606" height="5.805" transform="translate(58.232 64.148)" fill="#fff"/>
        <path id="Path_1810" data-name="Path 1810" d="M317.818,356.832v12.48h-6.071v-1.38a13.115,13.115,0,0,1-7.141,2.114h-.066a13.213,13.213,0,0,1,0-26.425h.066a13.141,13.141,0,0,1,7.141,2.112V335.7h6.071Zm-6.071,1.38v-2.758a7.283,7.283,0,0,0-7.141-5.874h-.066a7.263,7.263,0,0,0,0,14.526h.066A7.3,7.3,0,0,0,311.747,358.212Z" transform="translate(-262.612 -271.687)" fill="#fff"/>
        <path id="Path_1811" data-name="Path 1811" d="M285.583,299.757l6.005,10.012H262.249l-3.292-5.495,21.553-12.945Z" transform="translate(-243.654 -245.752)" fill="#fff"/>
        <path id="Path_1812" data-name="Path 1812" d="M248.534,367.967v12.48h-6.071v-1.38a13.13,13.13,0,0,1-7.141,2.114h-.069a13.213,13.213,0,0,1,0-26.425h.069a13.155,13.155,0,0,1,7.141,2.112v-1.446h6.071Zm-6.071,1.38v-2.758a7.283,7.283,0,0,0-7.141-5.873h-.069a7.263,7.263,0,0,0,0,14.526h.069A7.3,7.3,0,0,0,242.463,369.347Z" transform="translate(-222.132 -282.822)" fill="#fff"/>
      </g>
    </g>
  </g>
</svg>
