<svg xmlns="http://www.w3.org/2000/svg" width="17.183" height="19.586" viewBox="0 0 17.183 19.586">
  <g id="Artificial_intelligence" data-name="Artificial intelligence" transform="translate(-475.137 -291.21)">
    <path id="Path_2092" data-name="Path 2092" d="M482.172,310.8a.761.761,0,0,1-.713-.495l-.538-1.443a12.027,12.027,0,0,1-3.382-.44c-.729-.345-1.02-1.552-.867-3.589-1.385-.486-1.482-1.016-1.521-1.231s-.114-.631,1.5-4.224a6.562,6.562,0,0,1,2.064-5.738,8.372,8.372,0,0,1,6.794-2.379,7.546,7.546,0,0,1,5.81,3.942c1.5,3.154,1.322,5.692-.615,8.419l1.042,4a.76.76,0,1,1-1.472.384l-1.226-4.7.222-.294c1.8-2.388,1.99-4.392.676-7.149-1.3-2.732-4.566-3.08-4.6-3.084l-.041-.005a6.954,6.954,0,0,0-5.5,1.931c-2.235,2.3-1.655,4.454-1.629,4.545l.076.268-.113.26c-.572,1.263-1.2,2.774-1.416,3.43a5.994,5.994,0,0,0,.958.348l.628.17-.07.647a8.6,8.6,0,0,0,.05,2.715,17.609,17.609,0,0,0,3.171.267l.521.007.9,2.415a.76.76,0,0,1-.712,1.026Z" transform="translate(0 0)" fill="#fff"/>
    <path id="Path_2093" data-name="Path 2093" d="M496.514,323.171v2.9a.634.634,0,0,1-1.267,0V323.9l-2.631-1.515V321.04a1.2,1.2,0,1,1,1.267,0v.611Z" transform="translate(-12.624 -20.607)" fill="#fff"/>
    <path id="Path_2094" data-name="Path 2094" d="M509.459,308.278a1.2,1.2,0,0,1-.573,1.026v3.79a.634.634,0,1,1-1.267,0V309.3a1.2,1.2,0,1,1,1.84-1.024Z" transform="translate(-23.826 -11.845)" fill="#fff"/>
    <path id="Path_2095" data-name="Path 2095" d="M518.889,320.024a1.189,1.189,0,0,1-.573,1.021v1.343l-2.628,1.515v2.169a.634.634,0,1,1-1.267,0v-2.9l2.628-1.518v-.613a1.2,1.2,0,1,1,1.84-1.019Z" transform="translate(-29.327 -20.611)" fill="#fff"/>
  </g>
</svg>
