<svg xmlns="http://www.w3.org/2000/svg" width="136" height="136" viewBox="0 0 136 136" fill="none"><g clip-path="url(#clip0_2402_26081)"><g opacity="0.4" filter="url(#filter0_f_2402_26081)"><path d="M70.5631 113.412L117.362 87.7176V36.3294L70.5631 10.6353L23.7048 36.3294V87.7176" stroke="#0BDB90" stroke-width="6" stroke-miterlimit="10"></path><path d="M78.4666 87.3332L98.7269 76.7996V45.8665L70.4496 30.3999L42.1724 45.8665V67.2666" stroke="#0BDB90" stroke-width="6" stroke-miterlimit="10"></path><path d="M44.8106 117.365C54.2814 117.365 61.959 109.696 61.959 100.235C61.959 90.7751 54.2814 83.106 44.8106 83.106C35.3397 83.106 27.6621 90.7751 27.6621 100.235C27.6621 109.696 35.3397 117.365 44.8106 117.365Z" stroke="#0BDB90" stroke-width="6" stroke-miterlimit="10"></path></g><path d="M47.5226 105L83 85.5V46.5L47.5226 27L12 46.5V80" stroke="#0BDB90" stroke-width="4" stroke-miterlimit="10"></path><path d="M47.4366 88.952L68.8732 77.214V53.738L47.4366 42L26 53.738V75" stroke="#0BDB90" stroke-width="2" stroke-miterlimit="10"></path><path d="M26.1472 53.9805L47.3273 65.255L69 53.7266" stroke="#0BDB90" stroke-width="2" stroke-miterlimit="10"></path><path d="M46.9944 65.2549V88.8608" stroke="#0BDB90" stroke-width="2" stroke-miterlimit="10"></path><path d="M28 108C35.1797 108 41 102.18 41 95C41 87.8203 35.1797 82 28 82C20.8203 82 15 87.8203 15 95C15 102.18 20.8203 108 28 108Z" stroke="#0BDB90" stroke-width="4" stroke-miterlimit="10"></path><path d="M28 90V100" stroke="#0BDB90" stroke-width="2"></path><path d="M33 95L23 95" stroke="#0BDB90" stroke-width="2"></path></g><defs><filter id="filter0_f_2402_26081" x="0" y="-0.786621" width="128.362" height="129.151" color-interpolation-filters="sRGB"><feGaussianBlur stdDeviation="4"></feGaussianBlur></filter><clipPath id="clip0_2402_26081"><rect width="136" height="136" fill="white"></rect></clipPath></defs></svg>