<svg xmlns="http://www.w3.org/2000/svg" width="136" height="136" viewBox="0 0 136 136" fill="none"><g clip-path="url(#clip0_4801_79060)"><g opacity="0.4" filter="url(#filter0_f_4801_79060)"><path d="M90 21.4836V11.3388C90 9.49483 88.5144 8 86.6818 8H20.3182C18.4856 8 17 9.49484 17 11.3388L17 107.661C17 109.505 18.4856 111 20.3182 111C20.9818 111 32.7614 111 38.5682 111" stroke="#0BDB90" stroke-width="2.8642"></path><path d="M52 32H40.8207C39.2629 32 38 33.2629 38 34.8207V121.179C38 122.737 39.2629 124 40.8207 124H106.179C107.737 124 109 122.737 109 121.179V34.8207C109 33.2629 107.737 32 106.179 32H96" stroke="#0BDB90" stroke-width="5.64148"></path><path d="M80.7285 64.6605C80.7285 69.1227 77.208 72.6296 73.0001 72.6296C68.7921 72.6296 65.2717 69.1227 65.2717 64.6605C65.2717 60.1982 68.7921 56.6913 73.0001 56.6913C77.208 56.6913 80.7285 60.1982 80.7285 64.6605Z" stroke="#0BDB90" stroke-width="5.72839"></path><mask id="path-4-inside-1_4801_79060" fill="white"><path d="M95 101.327C95 95.3598 92.6821 89.6368 88.5564 85.4172C84.4305 81.1977 78.8348 78.8271 73 78.8271C67.1652 78.8271 61.5695 81.1977 57.4437 85.4172C53.3179 89.6368 51 95.3598 51 101.327L73 101.327H95Z"></path></mask><path d="M95 101.327C95 95.3598 92.6821 89.6368 88.5564 85.4172C84.4305 81.1977 78.8348 78.8271 73 78.8271C67.1652 78.8271 61.5695 81.1977 57.4437 85.4172C53.3179 89.6368 51 95.3598 51 101.327L73 101.327H95Z" stroke="#0BDB90" stroke-width="11.4568" mask="url(#path-4-inside-1_4801_79060)"></path><mask id="path-5-inside-2_4801_79060" fill="white"><path fill-rule="evenodd" clip-rule="evenodd" d="M67.8642 20C66.2823 20 65 21.2823 65 22.8642V26H59.8642C58.2823 26 57 27.2823 57 28.8642V38.1358C57 39.7177 58.2823 41 59.8642 41H88.1358C89.7177 41 91 39.7177 91 38.1358V28.8642C91 27.2823 89.7177 26 88.1358 26H83V22.8642C83 21.2823 81.7177 20 80.1358 20H67.8642Z"></path></mask><path d="M65 26V28.8642H67.8642V26H65ZM83 26H80.1358V28.8642H83V26ZM67.8642 22.8642V22.8642V17.1358C64.7005 17.1358 62.1358 19.7005 62.1358 22.8642H67.8642ZM67.8642 26V22.8642H62.1358V26H67.8642ZM59.8642 28.8642H65V23.1358H59.8642V28.8642ZM59.8642 28.8642H59.8642V23.1358C56.7005 23.1358 54.1358 25.7005 54.1358 28.8642H59.8642ZM59.8642 38.1358V28.8642H54.1358V38.1358H59.8642ZM59.8642 38.1358H59.8642H54.1358C54.1358 41.2995 56.7005 43.8642 59.8642 43.8642V38.1358ZM88.1358 38.1358H59.8642V43.8642H88.1358V38.1358ZM88.1358 38.1358V38.1358V43.8642C91.2995 43.8642 93.8642 41.2995 93.8642 38.1358H88.1358ZM88.1358 28.8642V38.1358H93.8642V28.8642H88.1358ZM88.1358 28.8642H93.8642C93.8642 25.7005 91.2995 23.1358 88.1358 23.1358V28.8642ZM83 28.8642H88.1358V23.1358H83V28.8642ZM80.1358 22.8642V26H85.8642V22.8642H80.1358ZM80.1358 22.8642L80.1358 22.8642H85.8642C85.8642 19.7005 83.2995 17.1358 80.1358 17.1358V22.8642ZM67.8642 22.8642H80.1358V17.1358H67.8642V22.8642Z" fill="#0BDB90" mask="url(#path-5-inside-2_4801_79060)"></path><path d="M57.0988 89.6296H29.8889C28.307 89.6296 27.0247 88.3473 27.0247 86.7654V50.014V33.7778C27.0247 32.1959 25.7423 30.9136 24.1605 30.9136H17" stroke="#0BDB90" stroke-width="2.8642"></path></g><path d="M68.2239 36.403V29.3284C68.2239 28.0424 67.1814 27 65.8955 27H19.3284C18.0424 27 17 28.0424 17 29.3284L17 96.5C17 97.7859 18.0424 98.8284 19.3284 98.8284C19.794 98.8284 28.0597 98.8284 32.1343 98.8284" stroke="#0BDB90" stroke-width="2"></path><path d="M42.4651 43H34C32.8954 43 32 43.8954 32 45V106C32 107.105 32.8954 108 34 108H80C81.1046 108 82 107.105 82 106V45C82 43.8954 81.1046 43 80 43H70.3721" stroke="#0BDB90" stroke-width="4"></path><path d="M61.9629 66.5833C61.9629 69.6972 59.487 72.1667 56.4999 72.1667C53.5129 72.1667 51.037 69.6972 51.037 66.5833C51.037 63.4695 53.5129 61 56.4999 61C59.487 61 61.9629 63.4695 61.9629 66.5833Z" stroke="#0BDB90" stroke-width="4"></path><mask id="path-11-inside-3_4801_79060" fill="white"><path d="M72 92.25C72 88.0728 70.367 84.0668 67.4602 81.1131C64.5533 78.1594 60.6109 76.5 56.5 76.5C52.3891 76.5 48.4467 78.1594 45.5398 81.1131C42.633 84.0668 41 88.0728 41 92.25L56.5 92.25H72Z"></path></mask><path d="M72 92.25C72 88.0728 70.367 84.0668 67.4602 81.1131C64.5533 78.1594 60.6109 76.5 56.5 76.5C52.3891 76.5 48.4467 78.1594 45.5398 81.1131C42.633 84.0668 41 88.0728 41 92.25L56.5 92.25H72Z" stroke="#0BDB90" stroke-width="8" mask="url(#path-11-inside-3_4801_79060)"></path><mask id="path-12-inside-4_4801_79060" fill="white"><path fill-rule="evenodd" clip-rule="evenodd" d="M52.9403 36C51.8357 36 50.9403 36.8954 50.9403 38V39.5H46.9403C45.8357 39.5 44.9403 40.3954 44.9403 41.5V48C44.9403 49.1046 45.8357 50 46.9403 50H66.9403C68.0449 50 68.9403 49.1046 68.9403 48V41.5C68.9403 40.3954 68.0449 39.5 66.9403 39.5H62.9403V38C62.9403 36.8954 62.0449 36 60.9403 36H52.9403Z"></path></mask><path d="M50.9403 39.5V41.5H52.9403V39.5H50.9403ZM62.9403 39.5H60.9403V41.5H62.9403V39.5ZM52.9403 38V38V34C50.7312 34 48.9403 35.7909 48.9403 38H52.9403ZM52.9403 39.5V38H48.9403V39.5H52.9403ZM46.9403 41.5H50.9403V37.5H46.9403V41.5ZM46.9403 41.5V37.5C44.7312 37.5 42.9403 39.2909 42.9403 41.5H46.9403ZM46.9403 48V41.5H42.9403V48H46.9403ZM46.9403 48H46.9403H42.9403C42.9403 50.2092 44.7312 52 46.9403 52V48ZM66.9403 48H46.9403V52H66.9403V48ZM66.9403 48V52C69.1494 52 70.9403 50.2092 70.9403 48H66.9403ZM66.9403 41.5V48H70.9403V41.5H66.9403ZM66.9403 41.5V41.5H70.9403C70.9403 39.2909 69.1494 37.5 66.9403 37.5V41.5ZM62.9403 41.5H66.9403V37.5H62.9403V41.5ZM60.9403 38V39.5H64.9403V38H60.9403ZM60.9403 38H64.9403C64.9403 35.7909 63.1494 34 60.9403 34V38ZM52.9403 38H60.9403V34H52.9403V38Z" fill="#0BDB90" mask="url(#path-12-inside-4_4801_79060)"></path><path d="M45 84H26C24.8954 84 24 83.1046 24 82V56.3373V45C24 43.8954 23.1046 43 22 43H17" stroke="#0BDB90" stroke-width="2"></path></g><defs><filter id="filter0_f_4801_79060" x="7.56787" y="-1.43213" width="112.253" height="136.253" color-interpolation-filters="sRGB"><feGaussianBlur stdDeviation="4"></feGaussianBlur></filter><clipPath id="clip0_4801_79060"><rect width="136" height="136" fill="white"></rect></clipPath></defs></svg>