<svg xmlns="http://www.w3.org/2000/svg" width="136" height="136" viewBox="0 0 136 136" fill="none"><g opacity="0.4"><g clip-path="url(#clip0_2402_51182)" filter="url(#filter0_f_2402_51182)"><path d="M52.8 64.9948L52.8 9.8667H118.133V95.7334H77.993" stroke="#0BDB90" stroke-width="6" stroke-miterlimit="10"></path><path d="M68.6667 46.7332L68.6667 26.6665H102.267V77.5332H86.8667" stroke="#0BDB90" stroke-width="6" stroke-miterlimit="10"></path><path d="M53.5333 94.7999C53.5333 106.545 44.0119 116.067 32.2667 116.067C20.5214 116.067 11 106.545 11 94.7999C11 83.0546 20.5214 73.5332 32.2667 73.5332C44.0119 73.5332 53.5333 83.0546 53.5333 94.7999Z" stroke="#0BDB90" stroke-width="6" stroke-miterlimit="10"></path><path d="M32.3589 73.3333V8" stroke="#0BDB90" stroke-width="6" stroke-miterlimit="10"></path><path d="M30.5081 34.3911H17.4414" stroke="#0BDB90" stroke-width="6" stroke-miterlimit="10"></path><path d="M30.5081 18.1001H17.4414" stroke="#0BDB90" stroke-width="6" stroke-miterlimit="10"></path></g></g><g clip-path="url(#clip1_2402_51182)"><path d="M53.1019 85.5V68H36.5L53.1019 85.5Z" stroke="#0BDB90" stroke-width="2" stroke-miterlimit="10"></path><path d="M36 67V26.9316H82.7069V86H54" stroke="#0BDB90" stroke-width="4" stroke-miterlimit="10"></path><path d="M45 67.6661L45 37H73V76H52.787" stroke="#0BDB90" stroke-width="2" stroke-miterlimit="10"></path><path d="M38 88.3228C38 96.8832 31.0604 103.823 22.5 103.823C13.9396 103.823 7 96.8832 7 88.3228C7 79.7623 13.9396 72.8228 22.5 72.8228C31.0604 72.8228 38 79.7623 38 88.3228Z" stroke="#0BDB90" stroke-width="4" stroke-miterlimit="10"></path><path d="M30.25 88.3228C30.25 92.603 26.7802 96.0728 22.5 96.0728C18.2198 96.0728 14.75 92.603 14.75 88.3228C14.75 84.0425 18.2198 80.5728 22.5 80.5728C26.7802 80.5728 30.25 84.0425 30.25 88.3228Z" stroke="#0BDB90" stroke-width="2" stroke-miterlimit="10"></path><path d="M22.3992 71V25" stroke="#0BDB90" stroke-width="4" stroke-miterlimit="10"></path><path d="M21.7439 43.7773H11.7439" stroke="#0BDB90" stroke-width="4" stroke-miterlimit="10"></path><path d="M21.7439 32.186H11.7439" stroke="#0BDB90" stroke-width="4" stroke-miterlimit="10"></path></g><defs><filter id="filter0_f_2402_51182" x="0" y="0" width="128" height="128" color-interpolation-filters="sRGB"><feGaussianBlur stdDeviation="4"></feGaussianBlur></filter><clipPath id="clip0_2402_51182"><rect width="112" height="112" fill="white" transform="translate(8 8)"></rect></clipPath><clipPath id="clip1_2402_51182"><rect width="80" height="85" fill="white" transform="translate(5 25)"></rect></clipPath></defs></svg>