<svg xmlns="http://www.w3.org/2000/svg" width="136" height="136" viewBox="0 0 136 136" fill="none"><g opacity="0.4" filter="url(#filter0_f_2402_9655)"><path d="M19.6816 82.3207V62.1414H117.215V125.562H19.6816V104.662" stroke="#0BDB90" stroke-width="6" stroke-miterlimit="10"></path><path d="M18 80.6597H50.2383C53.7564 80.6597 56.6771 83.8417 56.6771 87.7637V99.3077C56.6771 103.23 53.8228 106.412 50.2383 106.412H18" stroke="#0BDB90" stroke-width="6" stroke-miterlimit="10"></path><path d="M68.208 61.3311L68.208 42.5931" stroke="#0BDB90" stroke-width="6" stroke-miterlimit="10"></path><path d="M33.6149 25.2966L33.6149 43.4532L44.6145 49.3224L44.6145 62.7726M102.801 25.3862L102.801 43.4532L91.8017 49.3224L91.8017 62.7726" stroke="#0BDB90" stroke-width="6" stroke-miterlimit="10"></path><circle cx="102.801" cy="18.0897" r="7.08967" stroke="#0BDB90" stroke-width="6"></circle><circle cx="33.6151" cy="18.0897" r="7.08967" stroke="#0BDB90" stroke-width="6"></circle><circle cx="68.2081" cy="33.9449" r="7.08967" stroke="#0BDB90" stroke-width="6"></circle></g><path d="M14.3333 77.562V63.562H81.9999V107.562H14.3333V93.062" stroke="#0BDB90" stroke-width="4" stroke-miterlimit="10"></path><path d="M22.5 70.562H73.8333V100.562H22.5" stroke="#0BDB90" stroke-width="2" stroke-miterlimit="10"></path><path d="M12.5 76.4097H35.5329C37.9737 76.4097 40 78.6173 40 81.3383V89.3473C40 92.0683 38.0197 94.2759 35.5329 94.2759H12.5" stroke="#0BDB90" stroke-width="4" stroke-miterlimit="10"></path><path d="M12 85.46H28.3333" stroke="#0BDB90" stroke-width="2"></path><path d="M48 63L48 50" stroke="#0BDB90" stroke-width="4" stroke-miterlimit="10"></path><path d="M24 38L24 50.5966L31.6313 54.6686L31.6313 64M72 38.0622L72 50.5966L64.3687 54.6686L64.3687 64" stroke="#0BDB90" stroke-width="4" stroke-miterlimit="10"></path><circle cx="72" cy="33" r="6" stroke="#0BDB90" stroke-width="2"></circle><circle cx="24" cy="33" r="6" stroke="#0BDB90" stroke-width="2"></circle><circle cx="48" cy="44" r="6" stroke="#0BDB90" stroke-width="2"></circle><defs><filter id="filter0_f_2402_9655" x="12.6816" y="4" width="111.533" height="128.562" color-interpolation-filters="sRGB"><feGaussianBlur stdDeviation="2"></feGaussianBlur></filter></defs></svg>