<svg xmlns="http://www.w3.org/2000/svg" width="136" height="136" viewBox="0 0 136 136" fill="none"><g clip-path="url(#clip0_2402_19990)"><g opacity="0.4" filter="url(#filter0_f_2402_19990)"><path d="M63.3091 47.6092L63.3091 23.0239" stroke="#0BDB90" stroke-width="6"></path><path d="M63.3093 77.2536L63.3093 101.839" stroke="#0BDB90" stroke-width="6"></path><ellipse cx="63.3088" cy="111.805" rx="8.29631" ry="8.1951" stroke="#0BDB90" stroke-width="6"></ellipse><ellipse cx="63.3088" cy="16.1951" rx="8.2963" ry="8.1951" stroke="#0BDB90" stroke-width="6"></ellipse><path d="M47.9333 64.0005L23.0444 64.0005" stroke="#0BDB90" stroke-width="6"></path><path d="M80.7571 64.0006L105.646 64.0006" stroke="#0BDB90" stroke-width="6"></path><ellipse cx="16.2963" cy="63.9998" rx="8.2963" ry="8.19509" stroke="#0BDB90" stroke-width="6"></ellipse><ellipse cx="111.704" cy="63.9998" rx="8.29632" ry="8.19509" stroke="#0BDB90" stroke-width="6"></ellipse><path d="M63.4712 77.981C71.9613 77.981 78.8438 71.1824 78.8438 62.7959C78.8438 54.4094 71.9613 47.6108 63.4712 47.6108C54.9812 47.6108 48.0986 54.4094 48.0986 62.7959C48.0986 71.1824 54.9812 77.981 63.4712 77.981Z" stroke="#0BDB90" stroke-width="6" stroke-miterlimit="10"></path></g><path d="M47.5676 56.5244L47.5676 40.061" stroke="#0BDB90" stroke-width="4"></path><path d="M47.5676 76.3759L47.5676 92.8394" stroke="#0BDB90" stroke-width="4"></path><ellipse cx="47.5678" cy="99.5122" rx="5.55556" ry="5.4878" stroke="#0BDB90" stroke-width="4"></ellipse><ellipse cx="47.5678" cy="35.4878" rx="5.55556" ry="5.4878" stroke="#0BDB90" stroke-width="4"></ellipse><path d="M36.7406 67.4999L20.074 67.4999" stroke="#0BDB90" stroke-width="4"></path><path d="M58.7213 67.5004L75.3879 67.5004" stroke="#0BDB90" stroke-width="4"></path><ellipse cx="15.5556" cy="67.4999" rx="5.55556" ry="5.4878" stroke="#0BDB90" stroke-width="4"></ellipse><ellipse cx="79.4445" cy="67.4998" rx="5.55556" ry="5.4878" stroke="#0BDB90" stroke-width="4"></ellipse><path d="M46.9201 76.8616C52.6054 76.8616 57.2143 72.309 57.2143 66.693C57.2143 61.0771 52.6054 56.5244 46.9201 56.5244C41.2348 56.5244 36.626 61.0771 36.626 66.693C36.626 72.309 41.2348 76.8616 46.9201 76.8616Z" stroke="#0BDB90" stroke-width="4" stroke-miterlimit="10"></path><path d="M65.2557 67.043C65.2557 76.8345 57.2167 84.793 47.2742 84.793C37.3317 84.793 29.2927 76.8345 29.2927 67.043C29.2927 57.2514 37.3317 49.293 47.2742 49.293C57.2167 49.293 65.2557 57.2514 65.2557 67.043Z" stroke="#0BDB90" stroke-width="2"></path></g><defs><filter id="filter0_f_2402_19990" x="-3" y="-3" width="134" height="134" color-interpolation-filters="sRGB"><feGaussianBlur stdDeviation="4"></feGaussianBlur></filter><clipPath id="clip0_2402_19990"><rect width="136" height="136" fill="white"></rect></clipPath></defs></svg>