<svg id="Group_103610" data-name="Group 103610" xmlns="http://www.w3.org/2000/svg" width="19.494" height="18.82" viewBox="0 0 19.494 18.82">
  <path id="Path_22136" data-name="Path 22136" d="M106.62,45.794H99.443a.48.48,0,0,1-.481-.481V38.135a.48.48,0,0,1,.481-.481h7.177a.48.48,0,0,1,.481.481v7.177a.48.48,0,0,1-.481.481Zm-6.7-.963h6.214V38.617H99.925Z" transform="translate(-98.962 -37.654)" fill="#fff"/>
  <path id="Path_22137" data-name="Path 22137" d="M399.054,45.794h-7.178a.48.48,0,0,1-.481-.481V38.135a.48.48,0,0,1,.481-.481h7.177a.48.48,0,0,1,.481.481v7.177a.48.48,0,0,1-.48.481Zm-6.7-.963h6.214V38.617h-6.214Z" transform="translate(-380.041 -37.654)" fill="#fff"/>
  <path id="Path_22138" data-name="Path 22138" d="M106.62,320.854H99.443a.48.48,0,0,1-.481-.481V313.2a.48.48,0,0,1,.481-.481h7.177a.48.48,0,0,1,.481.481v7.177a.48.48,0,0,1-.481.482Zm-6.7-.963h6.214v-6.214H99.925Z" transform="translate(-98.962 -302.034)" fill="#fff"/>
  <path id="Path_22139" data-name="Path 22139" d="M399.054,320.854h-7.178a.48.48,0,0,1-.481-.481V313.2a.48.48,0,0,1,.481-.481h7.177a.48.48,0,0,1,.481.481v7.177a.48.48,0,0,1-.48.482Zm-6.7-.963h6.214v-6.214h-6.214Z" transform="translate(-380.041 -302.034)" fill="#fff"/>
  <path id="Path_22140" data-name="Path 22140" d="M172.513,112.45a1.267,1.267,0,1,1,1.267-1.267A1.267,1.267,0,0,1,172.513,112.45Zm0-1.572a.3.3,0,1,0,.3.3.3.3,0,0,0-.3-.3Z" transform="translate(-168.439 -107.109)" fill="#fff"/>
  <path id="Path_22141" data-name="Path 22141" d="M464.966,112.45a1.267,1.267,0,1,1,1.267-1.267A1.267,1.267,0,0,1,464.966,112.45Zm0-1.572a.3.3,0,1,0,.3.3.3.3,0,0,0-.3-.3Z" transform="translate(-449.537 -107.109)" fill="#fff"/>
  <path id="Path_22142" data-name="Path 22142" d="M464.966,387.34a1.267,1.267,0,1,1,1.267-1.267,1.267,1.267,0,0,1-1.267,1.267Zm0-1.572a.3.3,0,1,0,.3.3.3.3,0,0,0-.3-.3Z" transform="translate(-449.537 -371.326)" fill="#fff"/>
  <path id="Path_22143" data-name="Path 22143" d="M172.513,387.34a1.267,1.267,0,1,1,1.267-1.267A1.267,1.267,0,0,1,172.513,387.34Zm0-1.572a.3.3,0,1,0,.3.3.3.3,0,0,0-.3-.3Z" transform="translate(-168.439 -371.326)" fill="#fff"/>
  <path id="Path_22144" data-name="Path 22144" d="M203.331,141.8H191.976a.48.48,0,0,1-.481-.481V130.645a.48.48,0,0,1,.481-.481H203.33a.48.48,0,0,1,.481.481v10.674a.48.48,0,0,1-.48.482Zm-10.874-.962h10.392v-9.71H192.457Z" transform="translate(-187.902 -126.572)" fill="#fff"/>
</svg>
