<svg id="Group_26180" data-name="Group 26180" xmlns="http://www.w3.org/2000/svg" width="23.384" height="16.691" viewBox="0 0 23.384 16.691">
  <path id="Path_14727" data-name="Path 14727" d="M125.462,61.5a6.675,6.675,0,0,0-6.219,4.272,4.578,4.578,0,1,0-.895,9.067h6.641v2.867a.473.473,0,1,0,.945,0V74.839h6.641a4.578,4.578,0,1,0-.895-9.067,6.673,6.673,0,0,0-6.218-4.272Zm0,1.624a5.043,5.043,0,0,1,4.9,3.842l.224.915.872-.357a2.954,2.954,0,1,1,1.116,5.689h-6.641V69.146l.394.592a.472.472,0,0,0,.786-.524l-1.26-1.89a.367.367,0,0,0-.034-.043l-.01-.011-.027-.027-.013-.012-.031-.024-.011-.008a.463.463,0,0,0-.046-.028.483.483,0,0,0-.048-.022l-.013,0-.039-.013-.015,0-.04-.007-.014,0a.429.429,0,0,0-.109,0l-.014,0-.04.007-.015,0-.039.013-.012,0a.448.448,0,0,0-.047.022.4.4,0,0,0-.047.029l-.011.008-.031.025-.013.012-.027.028-.01.011a.472.472,0,0,0-.032.043l-1.26,1.89a.472.472,0,1,0,.786.525l.394-.592v4.068h-6.639a2.954,2.954,0,1,1,1.116-5.689l.872.356.223-.915a5.042,5.042,0,0,1,4.9-3.843Z" transform="translate(-113.77 -61.5)" fill="#fff"/>
</svg>
