<svg xmlns="http://www.w3.org/2000/svg" width="136" height="136" viewBox="0 0 136 136" fill="none"><g opacity="0.4" filter="url(#filter0_f_4801_78909)"><path d="M93 40.1283V32.5757V27.181V23.8301C93 20.5164 90.3137 17.8301 87 17.8301H21C17.6863 17.8301 15 20.5164 15 23.8301V93.8301C15 97.1438 17.6863 99.8301 21 99.8301H54" stroke="#0BDB90" stroke-width="4"></path><path d="M15 34C17.2729 34 66.6137 34 91 34" stroke="#0BDB90" stroke-width="3"></path><path d="M22 27C22.4948 27 29.691 27 35 27" stroke="#0BDB90" stroke-width="2.88571"></path><circle cx="63" cy="115.83" r="3" fill="#0BDB90"></circle><circle cx="100" cy="115.83" r="3" fill="#0BDB90"></circle><circle cx="76" cy="107.83" r="3" fill="#0BDB90"></circle><circle cx="86" cy="115.83" r="3" fill="#0BDB90"></circle><path d="M66 87.8301L66 96.7269L62 100.552L62 114.83" stroke="#0BDB90" stroke-width="3"></path><path d="M86 86.8301L86 115.83" stroke="#0BDB90" stroke-width="3"></path><path d="M96 86.8301L96 102.544L100 107.25L100 116.83" stroke="#0BDB90" stroke-width="2.88571"></path><path d="M76 85.8301L76 105.83" stroke="#0BDB90" stroke-width="3"></path><path fill-rule="evenodd" clip-rule="evenodd" d="M97 61.7158H95.4427L95.4427 67.1393L95.4427 72.9918H97V75.8776H91V72.9918H92.557L92.557 67.1393L92.557 61.7158H91V58.8301H97V61.7158Z" fill="#0BDB90"></path><path d="M60 72.5992H70" stroke="#0BDB90" stroke-width="2"></path><path d="M60 77.8301V65.8301C60 63.0687 62.2386 60.8301 65 60.8301V60.8301C67.7614 60.8301 70 63.0687 70 65.8301V77.8301" stroke="#0BDB90" stroke-width="2"></path><path d="M77 77.8301V69.3301M77 69.3301V60.8301H82H82.75C85.0972 60.8301 87 62.7329 87 65.0801V65.0801C87 67.4273 85.0972 69.3301 82.75 69.3301H77Z" stroke="#0BDB90" stroke-width="2"></path><path d="M118 86.3856L104 75.8301V94.8301L118 86.3856Z" stroke="#0BDB90" stroke-width="2"></path><path d="M112 90.8301L117 99.8301" stroke="#0BDB90" stroke-width="2"></path><path fill-rule="evenodd" clip-rule="evenodd" d="M81.0745 47.4713L82.6555 49.7261L84.9818 48.2521C86.3736 47.3702 88.0086 46.8637 89.7645 46.8637C94.2254 46.8637 98.0076 50.1742 98.7586 54.6263L99.0997 56.6481L101.121 56.9913C107.93 58.147 113.114 64.0787 113.114 71.2156C113.114 74.6548 111.911 77.8129 109.903 80.292C110.702 80.8747 111.496 81.4488 112.245 81.9837C114.596 79.0278 116 75.2857 116 71.2156C116 62.6478 109.777 55.5335 101.604 54.1463C100.63 48.3714 95.6999 43.978 89.7645 43.978C87.4427 43.978 85.2748 44.6503 83.4372 45.8146C80.745 41.975 76.3391 39.4728 71.3607 39.4728C63.372 39.4728 56.8576 45.9158 56.5322 53.989C47.7933 54.868 40.9714 62.2451 40.9714 71.2156C40.9714 80.778 48.7233 88.5299 58.2857 88.5299H98.6857C100.516 88.5299 102.28 88.2458 103.937 87.7194L104.078 84.6027C102.412 85.2745 100.592 85.6442 98.6857 85.6442H58.2857C50.317 85.6442 43.8572 79.1843 43.8572 71.2156C43.8572 63.742 49.5416 57.5924 56.8209 56.8603L59.3146 56.6095L59.4155 54.1053C59.681 47.52 64.9793 42.3585 71.3607 42.3585C75.3433 42.3585 78.89 44.3559 81.0745 47.4713Z" fill="#0BDB90"></path></g><path d="M68 49V39.3289V35.1842V32C68 29.7909 66.2091 28 64 28H18C15.7909 28 14 29.7909 14 32V87C14 89.2091 15.7909 91 18 91H41" stroke="#0BDB90" stroke-width="4"></path><path d="M14 41C15.585 41 49.9938 41 67 41" stroke="#0BDB90" stroke-width="2"></path><path d="M19 35C19.3426 35 24.3246 35 28 35" stroke="#0BDB90" stroke-width="2"></path><path fill-rule="evenodd" clip-rule="evenodd" d="M57 100.208C57.5978 100.556 58 101.206 58 101.951C58 103.062 57.1046 103.963 56 103.963C54.8954 103.963 54 103.062 54 101.951C54 101.206 54.4022 100.556 55 100.208L55 82H57L57 100.208ZM64 106.245C64.5978 106.593 65 107.243 65 107.988C65 109.099 64.1046 110 63 110C61.8954 110 61 109.099 61 107.988C61 107.243 61.4022 106.593 62 106.245L62 82L64 82L64 106.245ZM49 107.988C49 107.243 48.5978 106.593 48 106.245V97.3217L51 94.6136L51 82L49 82L49 93.7156L46 96.4237L46 106.245C45.4022 106.593 45 107.243 45 107.988C45 109.099 45.8954 110 47 110C48.1046 110 49 109.099 49 107.988ZM72 110C73.1046 110 74 109.099 74 107.988C74 107.243 73.5978 106.593 73 106.245V101.222L70 98.0104V82L68 82V98.8075L71 102.019V106.245C70.4022 106.593 70 107.243 70 107.988C70 109.099 70.8954 110 72 110Z" fill="#0BDB90"></path><path fill-rule="evenodd" clip-rule="evenodd" d="M70 65H69L69 69.3333L69 74H70V76H69H67H66V74H67L67 69.3333L67 65H66V63H70V65Z" fill="#0BDB90"></path><path d="M44 72.3077H51" stroke="#0BDB90" stroke-width="2"></path><path d="M44 76V67.5C44 65.567 45.567 64 47.5 64V64C49.433 64 51 65.567 51 67.5V76" stroke="#0BDB90" stroke-width="2"></path><path d="M56 76V70M56 70V64H59.5H60C61.6569 64 63 65.3431 63 67V67C63 68.6569 61.6569 70 60 70H56Z" stroke="#0BDB90" stroke-width="2"></path><path d="M87 81.3333L75 73V88L87 81.3333Z" stroke="#0BDB90" stroke-width="4"></path><path d="M81.5 84.8301L84.5 90.8301" stroke="#0BDB90" stroke-width="4"></path><path fill-rule="evenodd" clip-rule="evenodd" d="M59.5816 54.4617L60.6744 55.9108L62.2224 54.9634C63.2222 54.3515 64.3917 54 65.6471 54C68.6707 54 71.2474 56.0572 72.0425 58.9023L72.4078 60.2092L73.7572 60.3528C78.952 60.9053 83 65.3048 83 70.6471C83 73.1217 82.1318 75.3935 80.6834 77.1745C81.24 77.5763 81.7916 77.9715 82.3125 78.3403C83.9947 76.2297 85 73.5558 85 70.6471C85 64.2712 80.1696 59.0235 73.9687 58.364C72.9423 54.6912 69.6053 52 65.6471 52C64.0118 52 62.4825 52.4593 61.1784 53.2575C59.2268 50.6697 56.1469 49 52.6817 49C47.2688 49 42.7962 53.0742 42.0955 58.3573C35.8638 58.9874 31 64.2492 31 70.6471C31 77.4694 36.5306 83 43.3529 83H72.6471C73.9248 83 75.1572 82.806 76.3165 82.4459L76.4152 80.2929C75.2475 80.7494 73.9765 81 72.6471 81H43.3529C37.6352 81 33 76.3648 33 70.6471C33 65.2863 37.076 60.875 42.2967 60.3472L43.8702 60.1881L44.0781 58.6203C44.6511 54.3 48.303 51 52.6817 51C55.4872 51 57.9882 52.3489 59.5816 54.4617Z" fill="#0BDB90"></path><defs><filter id="filter0_f_4801_78909" x="5" y="7.83008" width="122.783" height="119" color-interpolation-filters="sRGB"><feGaussianBlur stdDeviation="4"></feGaussianBlur></filter></defs></svg>