<svg xmlns="http://www.w3.org/2000/svg" width="19.142" height="17.397" viewBox="0 0 19.142 17.397">
  <g id="IoT" transform="translate(-621.143 -616.052)">
    <path id="Path_1886" data-name="Path 1886" d="M621.976,627.748a.832.832,0,0,0-.832.832v10.287a.832.832,0,1,0,1.662,0V628.579A.832.832,0,0,0,621.976,627.748Z" transform="translate(0 -8.919)" fill="#fff"/>
    <path id="Path_1887" data-name="Path 1887" d="M686.162,634.642a.832.832,0,1,0,0-1.662H684.1v-2.988a.832.832,0,0,0-1.662,0v9.624a1.052,1.052,0,0,0,.929.955H685.9a.832.832,0,1,0,0-1.662h-1.8v-4.267Z" transform="translate(-46.748 -10.018)" fill="#fff"/>
    <path id="Path_1888" data-name="Path 1888" d="M640.241,631.616a5,5,0,1,0,5,5A5,5,0,0,0,640.241,631.616Zm0,8.346a3.343,3.343,0,1,1,3.342-3.342A3.343,3.343,0,0,1,640.241,639.963Z" transform="translate(-10.748 -11.869)" fill="#fff"/>
    <path id="Path_1889" data-name="Path 1889" d="M651.042,645.78a1.642,1.642,0,1,0,1.642,1.642A1.642,1.642,0,0,0,651.042,645.78Zm-.02,1.642a.02.02,0,0,1,.04,0c0,.022-.04.022-.04,0Z" transform="translate(-21.549 -22.671)" fill="#fff"/>
    <path id="Path_1890" data-name="Path 1890" d="M642.2,675.165a7.039,7.039,0,0,1-8.811.017.832.832,0,1,0-1.039,1.3,8.7,8.7,0,0,0,10.892-.021.832.832,0,0,0-1.044-1.294Z" transform="translate(-8.29 -44.935)" fill="#fff"/>
    <path id="Path_1891" data-name="Path 1891" d="M632.957,619.436a.827.827,0,0,0,.518-.182,7.039,7.039,0,0,1,8.483-.23.832.832,0,1,0,.967-1.352,8.7,8.7,0,0,0-10.488.285.832.832,0,0,0,.52,1.479Z" transform="translate(-8.376)" fill="#fff"/>
  </g>
</svg>
