<svg xmlns="http://www.w3.org/2000/svg" width="18.095" height="20.119" viewBox="0 0 18.095 20.119">
  <g id="Group_2409" data-name="Group 2409" transform="translate(0.251 0.267)">
    <path id="Path_63616" data-name="Path 63616" d="M17.832,10.078c0,1.477-.008,2.951.006,4.427a.762.762,0,0,1-.441.748q-3.972,2.223-7.933,4.462a.773.773,0,0,1-.845,0Q4.644,17.462.661,15.231a.715.715,0,0,1-.413-.7q.011-4.492,0-8.983a.715.715,0,0,1,.415-.694Q4.649,2.628,8.622.378a.765.765,0,0,1,.842,0q3.974,2.25,7.958,4.48a.715.715,0,0,1,.411.7c-.01,1.507,0,3.015,0,4.523M1.287,6.279c0,2.687,0,5.3.01,7.921a.477.477,0,0,0,.231.323c2.414,1.369,4.835,2.726,7.251,4.094a.465.465,0,0,0,.524,0q3.6-2.037,7.2-4.051a.49.49,0,0,0,.3-.5C16.79,11.6,16.8,9.119,16.8,6.641v-.35c-.156.083-.268.139-.377.2q-3.277,1.842-6.557,3.681a.511.511,0,0,0-.311.52c.016,1.313.01,2.628,0,3.942a.52.52,0,0,1-.515.579.528.528,0,0,1-.515-.58c0-.075,0-.151,0-.226,0-1.26-.006-2.52.006-3.781a.417.417,0,0,0-.253-.425Q5.515,8.661,2.762,7.1c-.477-.267-.953-.533-1.475-.827m.557-.894c.085.06.124.092.169.117Q5.428,7.421,8.84,9.346A.413.413,0,0,0,9.31,9.3q3.329-1.876,6.66-3.748c.08-.045.155-.1.257-.164-.071-.048-.111-.08-.155-.1L9.247,1.44a.391.391,0,0,0-.441.022c-.868.5-1.741.984-2.611,1.474L1.845,5.382" transform="translate(-0.247 -0.252)" fill="#fff" stroke="#fff" stroke-width="0.5"/>
    <path id="Path_63617" data-name="Path 63617" d="M17.832,10.078c0,1.477-.008,2.951.006,4.427a.762.762,0,0,1-.441.748q-3.972,2.223-7.933,4.462a.773.773,0,0,1-.845,0Q4.644,17.462.661,15.231a.715.715,0,0,1-.413-.7q.011-4.492,0-8.983a.715.715,0,0,1,.415-.694Q4.649,2.628,8.622.378a.765.765,0,0,1,.842,0q3.974,2.25,7.958,4.48a.715.715,0,0,1,.411.7C17.826,7.063,17.832,8.57,17.832,10.078ZM1.287,6.279c0,2.687,0,5.3.01,7.921a.477.477,0,0,0,.231.323c2.414,1.369,4.835,2.726,7.251,4.094a.465.465,0,0,0,.524,0q3.6-2.037,7.2-4.051a.49.49,0,0,0,.3-.5C16.79,11.6,16.8,9.119,16.8,6.641v-.35c-.156.083-.268.139-.377.2q-3.277,1.842-6.557,3.681a.511.511,0,0,0-.311.52c.016,1.313.01,2.628,0,3.942a.52.52,0,0,1-.515.579.528.528,0,0,1-.515-.58c0-.075,0-.151,0-.226,0-1.26-.006-2.52.006-3.781a.417.417,0,0,0-.253-.425Q5.515,8.661,2.762,7.1C2.285,6.838,1.81,6.572,1.287,6.279Zm.558-.9c.085.06.124.092.169.117Q5.428,7.421,8.84,9.346A.413.413,0,0,0,9.31,9.3q3.329-1.876,6.66-3.748c.08-.045.155-.1.257-.164-.071-.048-.111-.08-.155-.1L9.247,1.44a.391.391,0,0,0-.441.022c-.868.5-1.741.984-2.611,1.474Z" transform="translate(-0.247 -0.252)" fill="none" stroke="#fff" stroke-miterlimit="10" stroke-width="0.5"/>
    <path id="Path_63618" data-name="Path 63618" d="M10.87,20.82a.515.515,0,1,1,.518-.511.515.515,0,0,1-.518.511" transform="translate(-2.078 -3.79)" fill="#fff" stroke="#fff" stroke-width="0.5"/>
    <path id="Path_63619" data-name="Path 63619" d="M10.87,20.82a.515.515,0,1,1,.518-.511A.515.515,0,0,1,10.87,20.82Z" transform="translate(-2.078 -3.79)" fill="none" stroke="#fff" stroke-miterlimit="10" stroke-width="0.5"/>
  </g>
</svg>
