<svg id="design" xmlns="http://www.w3.org/2000/svg" xmlns:xlink="http://www.w3.org/1999/xlink" viewBox="0 0 56 56"><defs><style>.cls-1{fill:url(#radial-gradient);}.cls-2{fill:#2ecc97;}</style><radialGradient id="radial-gradient" cx="28" cy="28" r="36.64" gradientUnits="userSpaceOnUse"><stop offset="0.48" stop-color="#bdf5d0"/><stop offset="0.57" stop-color="#baf4cf"/><stop offset="0.64" stop-color="#b1f2cb"/><stop offset="0.69" stop-color="#a2edc5"/><stop offset="0.74" stop-color="#8de7bd"/><stop offset="0.79" stop-color="#71dfb2"/><stop offset="0.83" stop-color="#50d6a4"/><stop offset="0.87" stop-color="#2ecc97"/></radialGradient></defs><path class="cls-1" d="M10,28V4.37A4,4,0,0,1,14.32,0H41.67A4,4,0,0,1,46,4.36v47.3A4,4,0,0,1,41.71,56H14.3A4,4,0,0,1,10,51.67Z"/><path class="cls-2" d="M28,50H26a2,2,0,0,1-2-2,2,2,0,0,1,2-2H30a2,2,0,1,1,0,4Z"/></svg>