<svg id="nodejs-seeklogo.com_2" data-name="nodejs-seeklogo.com 2" xmlns="http://www.w3.org/2000/svg" xmlns:xlink="http://www.w3.org/1999/xlink" width="116.152" height="71.125" viewBox="0 0 116.152 71.125">
  <defs>
    <linearGradient id="linear-gradient" x1="0.682" y1="0.175" x2="0.278" y2="0.898" gradientUnits="objectBoundingBox">
      <stop offset="0" stop-color="#41873f"/>
      <stop offset="0.329" stop-color="#418b3d"/>
      <stop offset="0.635" stop-color="#419637"/>
      <stop offset="0.932" stop-color="#3fa92d"/>
      <stop offset="1" stop-color="#3fae2a"/>
    </linearGradient>
    <linearGradient id="linear-gradient-2" x1="0.433" y1="0.552" x2="1.592" y2="-0.183" gradientUnits="objectBoundingBox">
      <stop offset="0.138" stop-color="#41873f"/>
      <stop offset="0.403" stop-color="#54a044"/>
      <stop offset="0.714" stop-color="#66b848"/>
      <stop offset="0.908" stop-color="#6cc04a"/>
    </linearGradient>
    <linearGradient id="linear-gradient-3" x1="-44.138" y1="0.134" x2="53.279" y2="0.134" gradientUnits="objectBoundingBox">
      <stop offset="0.092" stop-color="#6cc04a"/>
      <stop offset="0.286" stop-color="#66b848"/>
      <stop offset="0.597" stop-color="#54a044"/>
      <stop offset="0.862" stop-color="#41873f"/>
    </linearGradient>
    <linearGradient id="linear-gradient-4" x1="-0.044" y1="0.5" x2="1.015" y2="0.5" xlink:href="#linear-gradient-3"/>
    <linearGradient id="linear-gradient-5" x1="-97.138" y1="0.362" x2="0.279" y2="0.362" xlink:href="#linear-gradient-3"/>
    <linearGradient id="linear-gradient-6" x1="-1.039" y1="0.503" x2="1.008" y2="0.503" xlink:href="#linear-gradient-3"/>
    <linearGradient id="linear-gradient-7" x1="1.306" y1="-2.111" x2="0.044" y2="2.016" xlink:href="#linear-gradient"/>
  </defs>
  <path id="Path_3100" data-name="Path 3100" d="M209.969,215.869a2.3,2.3,0,0,1-1.1-.289l-3.492-2.074c-.525-.289-.263-.394-.105-.446a6.361,6.361,0,0,0,1.575-.709.242.242,0,0,1,.263.026l2.678,1.6a.334.334,0,0,0,.315,0l10.476-6.065a.3.3,0,0,0,.158-.289v-12.1a.3.3,0,0,0-.158-.289L210.1,189.194a.334.334,0,0,0-.315,0l-10.476,6.039a.329.329,0,0,0-.158.289v12.1a.329.329,0,0,0,.158.289l2.862,1.654c1.549.788,2.52-.131,2.52-1.05V196.571a.319.319,0,0,1,.315-.315h1.339a.319.319,0,0,1,.315.315v11.946c0,2.074-1.129,3.282-3.1,3.282a4.5,4.5,0,0,1-2.415-.656l-2.757-1.575a2.216,2.216,0,0,1-1.1-1.917v-12.1a2.216,2.216,0,0,1,1.1-1.917l10.476-6.065a2.343,2.343,0,0,1,2.205,0l10.476,6.065a2.216,2.216,0,0,1,1.1,1.917v12.1a2.216,2.216,0,0,1-1.1,1.917l-10.476,6.065A2.688,2.688,0,0,1,209.969,215.869Zm3.229-8.323c-4.595,0-5.54-2.1-5.54-3.886a.319.319,0,0,1,.315-.315h1.365a.27.27,0,0,1,.289.263c.21,1.392.814,2.074,3.6,2.074,2.205,0,3.151-.5,3.151-1.68,0-.683-.263-1.181-3.7-1.523-2.862-.289-4.647-.919-4.647-3.2,0-2.127,1.785-3.387,4.778-3.387,3.361,0,5.015,1.155,5.225,3.676a.423.423,0,0,1-.079.236.324.324,0,0,1-.21.105h-1.365a.308.308,0,0,1-.289-.236c-.315-1.444-1.129-1.917-3.282-1.917-2.415,0-2.7.84-2.7,1.47,0,.761.341,1,3.6,1.418,3.229.42,4.752,1.024,4.752,3.282C218.423,206.233,216.533,207.546,213.2,207.546Z" transform="translate(-152.523 -144.744)" fill="#539e43"/>
  <path id="Path_3101" data-name="Path 3101" d="M25.173,78.362a1.336,1.336,0,0,0-.683-1.155L13.359,70.8a1.616,1.616,0,0,0-.6-.184H12.65a1.249,1.249,0,0,0-.6.184L.914,77.207a1.336,1.336,0,0,0-.683,1.155L.257,95.585a.652.652,0,0,0,.341.578.6.6,0,0,0,.656,0l6.616-3.781a1.336,1.336,0,0,0,.683-1.155v-8.06a1.336,1.336,0,0,1,.683-1.155l2.809-1.628a1.272,1.272,0,0,1,.683-.184,1.128,1.128,0,0,1,.656.184l2.809,1.628a1.336,1.336,0,0,1,.683,1.155v8.06a1.336,1.336,0,0,0,.683,1.155l6.616,3.781a.641.641,0,0,0,.683,0,.652.652,0,0,0,.341-.578l-.026-17.223Z" transform="translate(-0.231 -54.575)" fill="#333"/>
  <path id="Path_3102" data-name="Path 3102" d="M285.548.079a.723.723,0,0,0-.656,0,.684.684,0,0,0-.341.578V17.722a.473.473,0,0,1-.709.42l-2.783-1.6a1.353,1.353,0,0,0-1.339,0l-11.132,6.432a1.336,1.336,0,0,0-.683,1.155V36.967a1.336,1.336,0,0,0,.683,1.155l11.132,6.432a1.353,1.353,0,0,0,1.339,0l11.132-6.432a1.336,1.336,0,0,0,.683-1.155v-32a1.346,1.346,0,0,0-.683-1.181l-6.643-3.7ZM284.524,32.74a.3.3,0,0,1-.158.289l-3.807,2.205a.389.389,0,0,1-.341,0l-3.807-2.205a.329.329,0,0,1-.158-.289V28.329a.3.3,0,0,1,.158-.289l3.807-2.205a.389.389,0,0,1,.341,0l3.807,2.205a.329.329,0,0,1,.158.289V32.74Z" transform="translate(-207.098)" fill="#333"/>
  <g id="Group_26142" data-name="Group 26142" transform="translate(91.289 16.206)">
    <path id="Path_3103" data-name="Path 3103" d="M25.247,12.856A1.311,1.311,0,0,0,25.9,11.7V8.577a1.368,1.368,0,0,0-.656-1.155L14.194,1.015a1.353,1.353,0,0,0-1.339,0L1.723,7.448A1.336,1.336,0,0,0,1.04,8.6V21.442A1.336,1.336,0,0,0,1.723,22.6l11.053,6.3a1.3,1.3,0,0,0,1.313,0l6.7-3.728a.659.659,0,0,0,0-1.155L9.6,17.582A.684.684,0,0,1,9.258,17V12.987A.652.652,0,0,1,9.6,12.41l3.492-2a.641.641,0,0,1,.683,0l3.492,2a.684.684,0,0,1,.341.578v3.151a.652.652,0,0,0,.341.578.641.641,0,0,0,.683,0l6.616-3.859Z" transform="translate(-1.04 -0.838)" fill="#333"/>
    <path id="Path_3104" data-name="Path 3104" d="M47.564,50.95a.238.238,0,0,1,.263,0l2.127,1.234a.276.276,0,0,1,.131.236v2.468a.276.276,0,0,1-.131.236l-2.127,1.234a.239.239,0,0,1-.263,0l-2.127-1.234a.276.276,0,0,1-.131-.236V52.421a.276.276,0,0,1,.131-.236l2.127-1.234Z" transform="translate(-35.25 -39.536)" fill="#539e43"/>
  </g>
  <g id="Group_26146" data-name="Group 26146" transform="translate(30.403 14.099)">
    <path id="Path_3105" data-name="Path 3105" d="M13.511,1.246a1.353,1.353,0,0,0-1.339,0L1.119,7.626A1.311,1.311,0,0,0,.462,8.782V21.568a1.368,1.368,0,0,0,.656,1.155L12.172,29.1a1.353,1.353,0,0,0,1.339,0l11.053-6.38a1.311,1.311,0,0,0,.656-1.155V8.782a1.368,1.368,0,0,0-.656-1.155L13.511,1.246Z" transform="translate(-0.357 1.09)" fill="url(#linear-gradient)"/>
    <g id="Group_26143" data-name="Group 26143" transform="translate(0 2.155)">
      <path id="Path_3106" data-name="Path 3106" d="M11.789,1.232.709,7.612A1.362,1.362,0,0,0,0,8.767V21.553a1.264,1.264,0,0,0,.341.84L12.786,1.074a1.5,1.5,0,0,0-1,.158Z" transform="translate(0 -1.051)" fill="none"/>
      <path id="Path_3107" data-name="Path 3107" d="M56.632,52.346a1.606,1.606,0,0,0,.315-.131l11.08-6.38a1.336,1.336,0,0,0,.683-1.155V31.893a1.337,1.337,0,0,0-.394-.919L56.632,52.346Z" transform="translate(-43.767 -24.177)" fill="none"/>
      <path id="Path_3108" data-name="Path 3108" d="M25.395,7.783,14.289,1.4a1.823,1.823,0,0,0-.341-.131L1.5,22.59a1.382,1.382,0,0,0,.368.315l11.106,6.38A1.28,1.28,0,0,0,14,29.417L25.683,8.045a1.376,1.376,0,0,0-.289-.263Z" transform="translate(-1.161 -1.221)" fill="url(#linear-gradient-2)"/>
    </g>
    <g id="Group_26145" data-name="Group 26145" transform="translate(0 0)">
      <g id="Group_26144" data-name="Group 26144">
        <path id="Path_3109" data-name="Path 3109" d="M68.173,30.881V18.095a1.362,1.362,0,0,0-.709-1.155l-11.106-6.38a1.16,1.16,0,0,0-.42-.158L68.095,31.17a.529.529,0,0,0,.079-.289Z" transform="translate(-43.231 -8.223)" fill="none"/>
        <path id="Path_3110" data-name="Path 3110" d="M.709,39.091A1.362,1.362,0,0,0,0,40.246V53.032a1.419,1.419,0,0,0,.709,1.155l11.106,6.38a1.237,1.237,0,0,0,.866.158L.788,39.065l-.079.026Z" transform="translate(0 -30.374)" fill="none"/>
        <path id="Path_3111" data-name="Path 3111" d="M49.855.809,49.7.888h.21Z" transform="translate(-38.408 -0.809)" fill-rule="evenodd" fill="url(#linear-gradient-3)"/>
        <path id="Path_3112" data-name="Path 3112" d="M26.85,31.955a1.493,1.493,0,0,0,.656-.84L15.324,10.321a1.334,1.334,0,0,0-.945.158L3.352,16.832,15.245,38.518a1.831,1.831,0,0,0,.5-.158L26.85,31.955Z" transform="translate(-2.59 -8.141)" fill-rule="evenodd" fill="url(#linear-gradient-4)"/>
        <path id="Path_3113" data-name="Path 3113" d="M111.031,104.265l-.079-.131v.184Z" transform="translate(-85.748 -80.662)" fill-rule="evenodd" fill="url(#linear-gradient-5)"/>
        <path id="Path_3114" data-name="Path 3114" d="M67.4,102.689l-11.08,6.38a1.584,1.584,0,0,1-.5.158l.21.394L68.32,102.5v-.158l-.315-.525a1.22,1.22,0,0,1-.6.866Z" transform="translate(-43.142 -78.875)" fill-rule="evenodd" fill="url(#linear-gradient-6)"/>
        <path id="Path_3115" data-name="Path 3115" d="M67.4,102.689l-11.08,6.38a1.584,1.584,0,0,1-.5.158l.21.394L68.32,102.5v-.158l-.315-.525a1.22,1.22,0,0,1-.6.866Z" transform="translate(-43.142 -78.875)" fill-rule="evenodd" fill="url(#linear-gradient-7)"/>
      </g>
    </g>
  </g>
</svg>
