<svg width="49" height="49" viewBox="0 0 49 49" fill="none" xmlns="http://www.w3.org/2000/svg">
<g clip-path="url(#clip0_2890_124859)">
<path d="M24.875 16.9999V4.99994C24.875 2.51466 22.8603 0.499939 20.375 0.499939H5.375C2.88972 0.499939 0.875 2.51466 0.875 4.99994V16.9999C0.875 19.4852 2.88972 21.4999 5.375 21.4999H20.375C22.8603 21.4999 24.875 19.4852 24.875 16.9999Z" fill="#FDF6B4"/>
<path d="M9.61212 5.28271C9.87664 5.28271 10.0911 5.49715 10.0911 5.76166V6.55683C10.0911 6.82134 9.87664 7.03578 9.61212 7.03578C9.34761 7.03578 9.13317 6.82134 9.13317 6.55683V5.76166C9.13317 5.49715 9.34761 5.28271 9.61212 5.28271ZM9.49087 15.0532C9.75538 15.0532 9.96982 15.2676 9.96982 15.5321V16.1837C9.96982 16.4482 9.75538 16.6627 9.49087 16.6627C9.22635 16.6627 9.01192 16.4482 9.01192 16.1837V15.5321C9.01192 15.2676 9.22635 15.0532 9.49087 15.0532ZM10.5033 13.0728C10.5033 12.8494 10.4649 12.6619 10.3881 12.5104C10.3154 12.3588 10.1941 12.2252 10.0244 12.1095C9.85463 11.9938 9.63031 11.8801 9.35143 11.7684C8.81792 11.561 8.34907 11.3456 7.9449 11.1223C7.54072 10.8949 7.22546 10.6117 6.99912 10.2727C6.77279 9.93361 6.65962 9.49884 6.65962 8.96833C6.65962 8.47373 6.78087 8.04493 7.02338 7.68196C7.26588 7.31499 7.60135 7.03179 8.02977 6.83235C8.46224 6.63291 8.9614 6.53319 9.52724 6.53319C9.95971 6.53319 10.3538 6.59701 10.7095 6.72465C11.0651 6.85229 11.3703 7.03578 11.6249 7.2751C11.8836 7.51443 12.0816 7.8096 12.2191 8.16061C12.2513 8.24205 12.2798 8.32625 12.3045 8.41318C12.4476 8.91727 12.0004 9.35125 11.4764 9.35125H11.1441C10.8036 9.35125 10.5475 9.06862 10.4548 8.74097C10.4063 8.56547 10.3356 8.42187 10.2426 8.31019C10.1497 8.19451 10.0405 8.10875 9.91525 8.05291C9.794 7.99707 9.65658 7.96915 9.50299 7.96915C9.2807 7.96915 9.09882 8.01502 8.95736 8.10676C8.81589 8.19451 8.71283 8.31418 8.64816 8.46575C8.58349 8.61732 8.55116 8.78684 8.55116 8.97432C8.55116 9.16578 8.58551 9.3333 8.65422 9.4769C8.72698 9.6205 8.84823 9.75212 9.01798 9.87179C9.18774 9.99145 9.42014 10.1131 9.71519 10.2368C10.2406 10.4482 10.7054 10.6715 11.1096 10.9069C11.5138 11.1382 11.829 11.4234 12.0554 11.7625C12.2857 12.0975 12.4009 12.5303 12.4009 13.0608C12.4009 13.5793 12.2777 14.0201 12.0311 14.3831C11.7886 14.7461 11.4471 15.0233 11.0065 15.2147C10.57 15.4022 10.0648 15.4959 9.49087 15.4959C9.1069 15.4959 8.72698 15.4481 8.35109 15.3523C7.97925 15.2526 7.63974 15.0911 7.33257 14.8677C7.0254 14.6443 6.78087 14.3472 6.59899 13.9762C6.53467 13.845 6.48172 13.7034 6.44015 13.5512C6.30202 13.0458 6.75097 12.6121 7.27497 12.6121H7.51265C7.9054 12.6121 8.19169 12.9433 8.32684 13.3121C8.39959 13.4956 8.49458 13.6432 8.61179 13.7548C8.73304 13.8625 8.86844 13.9403 9.01798 13.9882C9.17157 14.0361 9.3292 14.06 9.49087 14.06C9.72125 14.06 9.91121 14.0161 10.0608 13.9284C10.2103 13.8406 10.3214 13.7229 10.3942 13.5754C10.467 13.4238 10.5033 13.2563 10.5033 13.0728Z" fill="#333333"/>
<path d="M16.6121 5.28271C16.8766 5.28271 17.0911 5.49715 17.0911 5.76166V6.55683C17.0911 6.82134 16.8766 7.03578 16.6121 7.03578C16.3476 7.03578 16.1332 6.82134 16.1332 6.55683V5.76166C16.1332 5.49715 16.3476 5.28271 16.6121 5.28271ZM16.4909 15.0532C16.7554 15.0532 16.9698 15.2676 16.9698 15.5321V16.1837C16.9698 16.4482 16.7554 16.6627 16.4909 16.6627C16.2264 16.6627 16.0119 16.4482 16.0119 16.1837V15.5321C16.0119 15.2676 16.2264 15.0532 16.4909 15.0532ZM17.5033 13.0728C17.5033 12.8494 17.4649 12.6619 17.3881 12.5104C17.3154 12.3588 17.1941 12.2252 17.0244 12.1095C16.8546 11.9938 16.6303 11.8801 16.3514 11.7684C15.8179 11.561 15.3491 11.3456 14.9449 11.1223C14.5407 10.8949 14.2255 10.6117 13.9991 10.2727C13.7728 9.93361 13.6596 9.49884 13.6596 8.96833C13.6596 8.47373 13.7809 8.04493 14.0234 7.68196C14.2659 7.31499 14.6013 7.03179 15.0298 6.83235C15.4622 6.63291 15.9614 6.53319 16.5272 6.53319C16.9597 6.53319 17.3538 6.59701 17.7095 6.72465C18.0651 6.85229 18.3703 7.03578 18.6249 7.2751C18.8836 7.51443 19.0816 7.8096 19.2191 8.16061C19.2513 8.24205 19.2798 8.32625 19.3045 8.41318C19.4476 8.91727 19.0004 9.35125 18.4764 9.35125H18.1441C17.8036 9.35125 17.5475 9.06862 17.4548 8.74097C17.4063 8.56547 17.3356 8.42187 17.2426 8.31019C17.1497 8.19451 17.0405 8.10875 16.9153 8.05291C16.794 7.99707 16.6566 7.96915 16.503 7.96915C16.2807 7.96915 16.0988 8.01502 15.9574 8.10676C15.8159 8.19451 15.7128 8.31418 15.6482 8.46575C15.5835 8.61732 15.5512 8.78684 15.5512 8.97432C15.5512 9.16578 15.5855 9.3333 15.6542 9.4769C15.727 9.6205 15.8482 9.75212 16.018 9.87179C16.1877 9.99145 16.4201 10.1131 16.7152 10.2368C17.2406 10.4482 17.7054 10.6715 18.1096 10.9069C18.5138 11.1382 18.829 11.4234 19.0554 11.7625C19.2857 12.0975 19.4009 12.5303 19.4009 13.0608C19.4009 13.5793 19.2777 14.0201 19.0311 14.3831C18.7886 14.7461 18.4471 15.0233 18.0065 15.2147C17.57 15.4022 17.0648 15.4959 16.4909 15.4959C16.1069 15.4959 15.727 15.4481 15.3511 15.3523C14.9793 15.2526 14.6397 15.0911 14.3326 14.8677C14.0254 14.6443 13.7809 14.3472 13.599 13.9762C13.5347 13.845 13.4817 13.7034 13.4401 13.5512C13.302 13.0458 13.751 12.6121 14.275 12.6121H14.5127C14.9054 12.6121 15.1917 12.9433 15.3268 13.3121C15.3996 13.4956 15.4946 13.6432 15.6118 13.7548C15.733 13.8625 15.8684 13.9403 16.018 13.9882C16.1716 14.0361 16.3292 14.06 16.4909 14.06C16.7212 14.06 16.9112 14.0161 17.0608 13.9284C17.2103 13.8406 17.3214 13.7229 17.3942 13.5754C17.467 13.4238 17.5033 13.2563 17.5033 13.0728Z" fill="#333333"/>
<path d="M14.8389 15.2569H46.8749C47.4272 15.2569 47.8749 15.7046 47.8749 16.2569V46.0813C47.8749 46.6336 47.4272 47.0813 46.8749 47.0813H14.8389C14.2866 47.0813 13.8389 46.6336 13.8389 46.0813V16.2569C13.8389 15.7046 14.2866 15.2569 14.8389 15.2569Z" fill="url(#paint0_linear_2890_124859)"/>
<rect x="30.4209" y="19.8274" width="2.61818" height="2.61818" rx="1.30909" fill="#333333"/>
<rect x="40.8936" y="19.8274" width="2.61818" height="2.61818" rx="1.30909" fill="#333333"/>
<rect x="35.6572" y="19.8274" width="2.61818" height="2.61818" rx="1.30909" fill="#333333"/>
<path fill-rule="evenodd" clip-rule="evenodd" d="M12.8389 20.2092C12.8389 18 14.6297 16.2092 16.8389 16.2092H44.875C47.0841 16.2092 48.875 18 48.875 20.2092V44.5001C48.875 46.7092 47.0841 48.5001 44.875 48.5001H16.8389C14.6297 48.5001 12.8389 46.7092 12.8389 44.5001L12.8389 20.2092ZM16.8389 18.2092C15.7343 18.2092 14.8389 19.1046 14.8389 20.2092L14.8389 23.2884L46.875 23.1939V20.2092C46.875 19.1046 45.9796 18.2092 44.875 18.2092H16.8389ZM46.875 25.1939L14.8389 25.2884L14.8389 44.5001C14.8389 45.6046 15.7343 46.5001 16.8389 46.5001H44.875C45.9796 46.5001 46.875 45.6046 46.875 44.5001V25.1939Z" fill="#333333"/>
<path fill-rule="evenodd" clip-rule="evenodd" d="M28.2099 34.5782C28.2099 34.1364 28.5681 33.7782 29.0099 33.7782H33.4891C33.9309 33.7782 34.2891 34.1364 34.2891 34.5782V36.8386C34.6443 36.9558 34.9895 37.0931 35.3236 37.2484L37.0304 35.6176C37.3396 35.3222 37.8265 35.3222 38.1357 35.6176L41.307 38.6477C41.4649 38.7987 41.5543 39.0076 41.5543 39.2261C41.5543 39.4446 41.4649 39.6536 41.307 39.8045L39.6479 41.3898C39.8002 41.6684 39.9427 41.9684 40.0654 42.3379H41.5516C41.9934 42.3379 42.3516 42.6961 42.3516 43.1379V45.7058H40.7516V43.9379H39.4554C39.0797 43.9379 38.7546 43.6765 38.674 43.3096C38.5216 42.616 38.3145 42.2663 37.9894 41.7174C37.977 41.6964 37.9644 41.6751 37.9516 41.6535C37.7622 41.3333 37.8185 40.9248 38.0875 40.6678L39.5963 39.2261L37.5831 37.3025L36.0216 38.7945C35.7707 39.0342 35.394 39.0849 35.0887 38.92C34.5251 38.6156 33.9227 38.3747 33.2898 38.2119C32.9362 38.121 32.6891 37.8022 32.6891 37.4372V35.3782H29.8099V37.4372C29.8099 37.8022 29.5628 38.121 29.2093 38.2119C28.5764 38.3747 27.974 38.6156 27.4103 38.92C27.1051 39.0849 26.7283 39.0342 26.4775 38.7945L24.916 37.3025L22.9028 39.2261L24.4116 40.6678C24.6806 40.9248 24.7369 41.3333 24.5475 41.6535C24.5347 41.6751 24.5221 41.6964 24.5097 41.7173C24.1846 42.2663 23.9775 42.616 23.8251 43.3096C23.7444 43.6765 23.4194 43.9379 23.0437 43.9379H21.7475V45.7058H20.1475V43.1379C20.1475 42.6961 20.5056 42.3379 20.9475 42.3379H22.4337C22.5563 41.9684 22.6989 41.6684 22.8512 41.3898L21.1921 39.8045C21.0341 39.6536 20.9448 39.4446 20.9448 39.2261C20.9448 39.0076 21.0341 38.7987 21.1921 38.6477L24.3633 35.6176C24.6725 35.3222 25.1595 35.3222 25.4687 35.6176L27.1754 37.2484C27.5095 37.0931 27.8547 36.9558 28.2099 36.8386V34.5782Z" fill="#333333"/>
<path fill-rule="evenodd" clip-rule="evenodd" d="M31.7059 41.7667C29.1512 41.7667 27.224 43.6135 27.224 45.705H25.624C25.624 42.5708 28.4354 40.1667 31.7059 40.1667C34.9764 40.1667 37.7878 42.5708 37.7878 45.705H36.1878C36.1878 43.6135 34.2606 41.7667 31.7059 41.7667Z" fill="#333333"/>
</g>
<defs>
<linearGradient id="paint0_linear_2890_124859" x1="29.6832" y1="47.8391" x2="29.6832" y2="39.5041" gradientUnits="userSpaceOnUse">
<stop stop-color="#FDF6B4"/>
<stop offset="1" stop-color="#FDF6B4" stop-opacity="0"/>
</linearGradient>
<clipPath id="clip0_2890_124859">
<rect width="48" height="48.0001" fill="white" transform="translate(0.875 0.499939)"/>
</clipPath>
</defs>
</svg>
