<svg xmlns="http://www.w3.org/2000/svg" width="1090" height="408" viewBox="0 0 1090 408">
  <g id="Group_17586" data-name="Group 17586" transform="translate(-148 -1117)">
    <rect id="Rectangle_10296" data-name="Rectangle 10296" width="34" height="35" rx="8" transform="translate(148 1204)" fill="#2469f6"/>
    <rect id="Rectangle_10297" data-name="Rectangle 10297" width="29" height="30" rx="8" transform="translate(500 1315)" fill="#fff"/>
    <rect id="Rectangle_10298" data-name="Rectangle 10298" width="33" height="34" rx="8" transform="translate(879 1267)" fill="#fff"/>
    <rect id="Rectangle_10299" data-name="Rectangle 10299" width="21" height="21" rx="4" transform="translate(1217 1117)" fill="#fff"/>
    <rect id="Rectangle_10300" data-name="Rectangle 10300" width="17" height="18" rx="4" transform="translate(240 1507)" fill="#fff"/>
    <path id="Shape_1" data-name="Shape 1" d="M6.4-.026H46.052a6.7,6.7,0,0,1,5.906,2.953L78.533,51.859s4.031,8.642-4.64,10.124L34.241,62.4s-5.586-.04-6.749-4.218L.5,9.254S-2.082.917,6.4-.026Z" transform="translate(211.782 1362)" fill="#8265d5"/>
    <path id="Shape_2" data-name="Shape 2" d="M937.728,22.121h42.326s3.487-.24,3.274,3.742L965.907,57.9a2.943,2.943,0,0,1-2.455,1.4H919.839s-4.126.086-2.806-3.975L933.87,23.758A3.6,3.6,0,0,1,937.728,22.121Z" transform="translate(107.682 1169.206)" fill="#8265d5"/>
  </g>
</svg>
